<mxfile host="app.diagrams.net" modified="2023-10-20T07:43:11.363Z" agent="Mozilla/5.0 (Windows NT 10.0; Win64; x64) AppleWebKit/537.36 (KHTML, like Gecko) Chrome/118.0.0.0 Safari/537.36" etag="6n1owdcfFcIUTUQqS_NY" version="22.0.5" type="google">
  <diagram id="prtHgNgQTEPvFCAcTncT" name="Page-1">
    <mxGraphModel grid="0" page="1" gridSize="10" guides="1" tooltips="1" connect="1" arrows="1" fold="1" pageScale="1" pageWidth="827" pageHeight="1169" math="0" shadow="0">
      <root>
        <mxCell id="0" />
        <mxCell id="1" parent="0" />
        <mxCell id="RaEK0Ksk2cjIm6eni1Dd-1" value="Terrain Scanning and waypointing" style="swimlane;html=1;childLayout=stackLayout;resizeParent=1;resizeParentMax=0;horizontal=0;startSize=20;horizontalStack=0;direction=east;rotation=90;rounded=0;" vertex="1" parent="1">
          <mxGeometry x="70.5" y="18.5" width="611" height="644" as="geometry" />
        </mxCell>
        <mxCell id="RaEK0Ksk2cjIm6eni1Dd-2" value="System" style="swimlane;html=1;startSize=20;horizontal=0;direction=east;rotation=90;rounded=0;" vertex="1" parent="1">
          <mxGeometry x="-169.75" y="290.5" width="577" height="120" as="geometry" />
        </mxCell>
        <mxCell id="RaEK0Ksk2cjIm6eni1Dd-3" style="edgeStyle=orthogonalEdgeStyle;rounded=0;orthogonalLoop=1;jettySize=auto;html=1;entryX=0.5;entryY=0;entryDx=0;entryDy=0;" edge="1" parent="RaEK0Ksk2cjIm6eni1Dd-2" source="RaEK0Ksk2cjIm6eni1Dd-4" target="RaEK0Ksk2cjIm6eni1Dd-7">
          <mxGeometry relative="1" as="geometry" />
        </mxCell>
        <mxCell id="RaEK0Ksk2cjIm6eni1Dd-4" value="" style="ellipse;whiteSpace=wrap;html=1;direction=east;rotation=90;fillColor=#000000;rounded=0;" vertex="1" parent="RaEK0Ksk2cjIm6eni1Dd-2">
          <mxGeometry x="277.22" y="-202" width="22.5" height="24.88" as="geometry" />
        </mxCell>
        <mxCell id="RaEK0Ksk2cjIm6eni1Dd-5" value="" style="ellipse;whiteSpace=wrap;html=1;direction=east;rotation=90;rounded=0;" vertex="1" parent="RaEK0Ksk2cjIm6eni1Dd-2">
          <mxGeometry x="268.47" y="295.75" width="40" height="40" as="geometry" />
        </mxCell>
        <mxCell id="RaEK0Ksk2cjIm6eni1Dd-6" value="" style="ellipse;whiteSpace=wrap;html=1;direction=east;rotation=90;rounded=0;" vertex="1" parent="RaEK0Ksk2cjIm6eni1Dd-2">
          <mxGeometry x="273.22" y="301" width="30.5" height="29.5" as="geometry" />
        </mxCell>
        <mxCell id="RaEK0Ksk2cjIm6eni1Dd-7" value="Check Database" style="rounded=1;whiteSpace=wrap;html=1;perimeterSpacing=0;glass=0;shadow=1;" vertex="1" parent="RaEK0Ksk2cjIm6eni1Dd-2">
          <mxGeometry x="234" y="-148.27999999999997" width="110" height="14.28" as="geometry" />
        </mxCell>
        <mxCell id="RaEK0Ksk2cjIm6eni1Dd-11" style="hachureGap=4;orthogonalLoop=1;jettySize=auto;html=1;entryX=0;entryY=0.5;entryDx=0;entryDy=0;fontFamily=Architects Daughter;fontSource=https%3A%2F%2Ffonts.googleapis.com%2Fcss%3Ffamily%3DArchitects%2BDaughter;fontSize=16;exitX=0.5;exitY=1;exitDx=0;exitDy=0;" edge="1" parent="RaEK0Ksk2cjIm6eni1Dd-2" source="RaEK0Ksk2cjIm6eni1Dd-77" target="RaEK0Ksk2cjIm6eni1Dd-5">
          <mxGeometry relative="1" as="geometry">
            <mxPoint x="288.8635123966942" y="251.24999999999977" as="sourcePoint" />
          </mxGeometry>
        </mxCell>
        <mxCell id="RaEK0Ksk2cjIm6eni1Dd-58" value="Update Database" style="rounded=1;whiteSpace=wrap;html=1;perimeterSpacing=0;glass=0;shadow=1;" vertex="1" parent="RaEK0Ksk2cjIm6eni1Dd-2">
          <mxGeometry x="234" y="-100.75" width="110" height="27.75" as="geometry" />
        </mxCell>
        <mxCell id="RaEK0Ksk2cjIm6eni1Dd-77" value="Update Database" style="rounded=1;whiteSpace=wrap;html=1;perimeterSpacing=0;glass=0;shadow=1;" vertex="1" parent="RaEK0Ksk2cjIm6eni1Dd-2">
          <mxGeometry x="234" y="229.25" width="110" height="27.75" as="geometry" />
        </mxCell>
        <mxCell id="RaEK0Ksk2cjIm6eni1Dd-25" value="GPS Locator" style="swimlane;html=1;startSize=20;horizontal=0;direction=east;rotation=90;rounded=0;" vertex="1" parent="1">
          <mxGeometry x="132" y="285.75" width="577" height="130" as="geometry" />
        </mxCell>
        <mxCell id="RaEK0Ksk2cjIm6eni1Dd-26" value="" style="edgeStyle=orthogonalEdgeStyle;rounded=0;orthogonalLoop=1;jettySize=auto;html=1;endArrow=classic;endFill=1;" edge="1" parent="RaEK0Ksk2cjIm6eni1Dd-25">
          <mxGeometry relative="1" as="geometry">
            <mxPoint x="284" y="107" as="sourcePoint" />
          </mxGeometry>
        </mxCell>
        <mxCell id="RaEK0Ksk2cjIm6eni1Dd-60" value="Create Terrain Map" style="rounded=1;whiteSpace=wrap;html=1;perimeterSpacing=0;glass=0;shadow=1;" vertex="1" parent="RaEK0Ksk2cjIm6eni1Dd-25">
          <mxGeometry x="237.5" y="-99.75" width="100" height="27.75" as="geometry" />
        </mxCell>
        <mxCell id="RaEK0Ksk2cjIm6eni1Dd-81" value="Create new way point" style="rounded=1;whiteSpace=wrap;html=1;perimeterSpacing=0;glass=0;shadow=1;" vertex="1" parent="RaEK0Ksk2cjIm6eni1Dd-25">
          <mxGeometry x="237.5" y="180.25" width="100" height="37.75" as="geometry" />
        </mxCell>
        <mxCell id="RaEK0Ksk2cjIm6eni1Dd-35" value="Computational Operator(Object)" style="swimlane;html=1;startSize=20;horizontal=0;direction=east;rotation=90;rounded=0;" vertex="1" parent="1">
          <mxGeometry x="300.04" y="246.96" width="577" height="206.63" as="geometry">
            <mxRectangle x="874" y="-66" width="40" height="120" as="alternateBounds" />
          </mxGeometry>
        </mxCell>
        <mxCell id="RaEK0Ksk2cjIm6eni1Dd-36" value="" style="edgeStyle=orthogonalEdgeStyle;rounded=0;orthogonalLoop=1;jettySize=auto;html=1;endArrow=classic;endFill=1;" edge="1" parent="RaEK0Ksk2cjIm6eni1Dd-35">
          <mxGeometry relative="1" as="geometry">
            <mxPoint x="325" y="148" as="sourcePoint" />
          </mxGeometry>
        </mxCell>
        <mxCell id="RaEK0Ksk2cjIm6eni1Dd-71" style="edgeStyle=orthogonalEdgeStyle;rounded=0;orthogonalLoop=1;jettySize=auto;html=1;exitX=0.5;exitY=1;exitDx=0;exitDy=0;entryX=0.5;entryY=0;entryDx=0;entryDy=0;" edge="1" parent="RaEK0Ksk2cjIm6eni1Dd-35" source="RaEK0Ksk2cjIm6eni1Dd-68" target="RaEK0Ksk2cjIm6eni1Dd-70">
          <mxGeometry relative="1" as="geometry" />
        </mxCell>
        <mxCell id="RaEK0Ksk2cjIm6eni1Dd-68" value="Compute next action" style="rounded=1;whiteSpace=wrap;html=1;perimeterSpacing=0;glass=0;shadow=1;" vertex="1" parent="RaEK0Ksk2cjIm6eni1Dd-35">
          <mxGeometry x="218.56" y="117.44" width="140.62" height="14.28" as="geometry" />
        </mxCell>
        <mxCell id="RaEK0Ksk2cjIm6eni1Dd-80" style="edgeStyle=orthogonalEdgeStyle;rounded=0;orthogonalLoop=1;jettySize=auto;html=1;exitX=0.5;exitY=1;exitDx=0;exitDy=0;entryX=0.5;entryY=0;entryDx=0;entryDy=0;" edge="1" parent="RaEK0Ksk2cjIm6eni1Dd-35" source="RaEK0Ksk2cjIm6eni1Dd-70" target="RaEK0Ksk2cjIm6eni1Dd-78">
          <mxGeometry relative="1" as="geometry" />
        </mxCell>
        <mxCell id="RaEK0Ksk2cjIm6eni1Dd-70" value="Plan efficiently" style="rounded=1;whiteSpace=wrap;html=1;perimeterSpacing=0;glass=0;shadow=1;" vertex="1" parent="RaEK0Ksk2cjIm6eni1Dd-35">
          <mxGeometry x="217.07" y="161" width="140.62" height="14.28" as="geometry" />
        </mxCell>
        <mxCell id="RaEK0Ksk2cjIm6eni1Dd-78" value="Avoid Obstacle" style="rounded=1;whiteSpace=wrap;html=1;perimeterSpacing=0;glass=0;shadow=1;" vertex="1" parent="RaEK0Ksk2cjIm6eni1Dd-35">
          <mxGeometry x="218.56" y="203.44" width="140.62" height="14.28" as="geometry" />
        </mxCell>
        <mxCell id="RaEK0Ksk2cjIm6eni1Dd-53" value="System Hardware Module" style="swimlane;html=1;startSize=20;horizontal=0;direction=east;rotation=90;rounded=0;" vertex="1" parent="1">
          <mxGeometry x="-21.52" y="262.28" width="577" height="176.63" as="geometry" />
        </mxCell>
        <mxCell id="RaEK0Ksk2cjIm6eni1Dd-54" value="" style="edgeStyle=orthogonalEdgeStyle;rounded=0;orthogonalLoop=1;jettySize=auto;html=1;endArrow=classic;endFill=1;" edge="1" parent="RaEK0Ksk2cjIm6eni1Dd-53">
          <mxGeometry relative="1" as="geometry">
            <mxPoint x="314" y="133" as="sourcePoint" />
          </mxGeometry>
        </mxCell>
        <mxCell id="RaEK0Ksk2cjIm6eni1Dd-56" value="Scan Terrain" style="rounded=1;whiteSpace=wrap;html=1;perimeterSpacing=0;glass=0;shadow=1;" vertex="1" parent="RaEK0Ksk2cjIm6eni1Dd-53">
          <mxGeometry x="234.5" y="-103.43999999999997" width="110" height="14.28" as="geometry" />
        </mxCell>
        <mxCell id="RaEK0Ksk2cjIm6eni1Dd-73" style="edgeStyle=orthogonalEdgeStyle;rounded=0;orthogonalLoop=1;jettySize=auto;html=1;exitX=0.5;exitY=1;exitDx=0;exitDy=0;entryX=0.5;entryY=0;entryDx=0;entryDy=0;" edge="1" parent="RaEK0Ksk2cjIm6eni1Dd-53" source="RaEK0Ksk2cjIm6eni1Dd-66" target="RaEK0Ksk2cjIm6eni1Dd-72">
          <mxGeometry relative="1" as="geometry" />
        </mxCell>
        <mxCell id="RaEK0Ksk2cjIm6eni1Dd-66" value="Detect Obstacle" style="rounded=1;whiteSpace=wrap;html=1;perimeterSpacing=0;glass=0;shadow=1;" vertex="1" parent="RaEK0Ksk2cjIm6eni1Dd-53">
          <mxGeometry x="234.5" y="6.560000000000002" width="110" height="14.28" as="geometry" />
        </mxCell>
        <mxCell id="RaEK0Ksk2cjIm6eni1Dd-72" value="" style="rhombus;whiteSpace=wrap;html=1;" vertex="1" parent="RaEK0Ksk2cjIm6eni1Dd-53">
          <mxGeometry x="262.34000000000003" y="66.56" width="54.32" height="49.44" as="geometry" />
        </mxCell>
        <mxCell id="RaEK0Ksk2cjIm6eni1Dd-57" style="rounded=0;orthogonalLoop=1;jettySize=auto;html=1;entryX=0;entryY=0.25;entryDx=0;entryDy=0;" edge="1" parent="1" source="RaEK0Ksk2cjIm6eni1Dd-7" target="RaEK0Ksk2cjIm6eni1Dd-56">
          <mxGeometry relative="1" as="geometry" />
        </mxCell>
        <mxCell id="RaEK0Ksk2cjIm6eni1Dd-59" style="rounded=0;orthogonalLoop=1;jettySize=auto;html=1;entryX=1;entryY=0.25;entryDx=0;entryDy=0;" edge="1" parent="1" source="RaEK0Ksk2cjIm6eni1Dd-56" target="RaEK0Ksk2cjIm6eni1Dd-58">
          <mxGeometry relative="1" as="geometry" />
        </mxCell>
        <mxCell id="RaEK0Ksk2cjIm6eni1Dd-64" style="rounded=0;orthogonalLoop=1;jettySize=auto;html=1;exitX=1;exitY=0.5;exitDx=0;exitDy=0;entryX=0;entryY=0.5;entryDx=0;entryDy=0;" edge="1" parent="1" source="RaEK0Ksk2cjIm6eni1Dd-58" target="RaEK0Ksk2cjIm6eni1Dd-60">
          <mxGeometry relative="1" as="geometry" />
        </mxCell>
        <mxCell id="RaEK0Ksk2cjIm6eni1Dd-65" style="rounded=0;orthogonalLoop=1;jettySize=auto;html=1;exitX=-0.007;exitY=0.821;exitDx=0;exitDy=0;entryX=1.007;entryY=0.842;entryDx=0;entryDy=0;entryPerimeter=0;exitPerimeter=0;" edge="1" parent="1" source="RaEK0Ksk2cjIm6eni1Dd-60" target="RaEK0Ksk2cjIm6eni1Dd-58">
          <mxGeometry relative="1" as="geometry" />
        </mxCell>
        <mxCell id="RaEK0Ksk2cjIm6eni1Dd-67" style="rounded=0;orthogonalLoop=1;jettySize=auto;html=1;exitX=1;exitY=1;exitDx=0;exitDy=0;entryX=0;entryY=0.25;entryDx=0;entryDy=0;" edge="1" parent="1" source="RaEK0Ksk2cjIm6eni1Dd-58" target="RaEK0Ksk2cjIm6eni1Dd-66">
          <mxGeometry relative="1" as="geometry" />
        </mxCell>
        <mxCell id="RaEK0Ksk2cjIm6eni1Dd-74" style="rounded=0;orthogonalLoop=1;jettySize=auto;html=1;exitX=1;exitY=0.5;exitDx=0;exitDy=0;entryX=0;entryY=0.5;entryDx=0;entryDy=0;" edge="1" parent="1" source="RaEK0Ksk2cjIm6eni1Dd-72" target="RaEK0Ksk2cjIm6eni1Dd-68">
          <mxGeometry relative="1" as="geometry" />
        </mxCell>
        <mxCell id="RaEK0Ksk2cjIm6eni1Dd-75" value="{still detect]" style="edgeLabel;html=1;align=center;verticalAlign=middle;resizable=0;points=[];" connectable="0" vertex="1" parent="RaEK0Ksk2cjIm6eni1Dd-74">
          <mxGeometry x="-0.7325" y="1" relative="1" as="geometry">
            <mxPoint x="3" y="-9" as="offset" />
          </mxGeometry>
        </mxCell>
        <mxCell id="RaEK0Ksk2cjIm6eni1Dd-82" style="rounded=0;orthogonalLoop=1;jettySize=auto;html=1;exitX=0;exitY=1;exitDx=0;exitDy=0;entryX=1;entryY=0.25;entryDx=0;entryDy=0;" edge="1" parent="1" source="RaEK0Ksk2cjIm6eni1Dd-78" target="RaEK0Ksk2cjIm6eni1Dd-81">
          <mxGeometry relative="1" as="geometry" />
        </mxCell>
        <mxCell id="RaEK0Ksk2cjIm6eni1Dd-84" style="rounded=0;orthogonalLoop=1;jettySize=auto;html=1;exitX=0.5;exitY=1;exitDx=0;exitDy=0;entryX=0;entryY=0;entryDx=0;entryDy=0;" edge="1" parent="1" source="RaEK0Ksk2cjIm6eni1Dd-72" target="RaEK0Ksk2cjIm6eni1Dd-81">
          <mxGeometry relative="1" as="geometry" />
        </mxCell>
        <mxCell id="RaEK0Ksk2cjIm6eni1Dd-85" value="[else]" style="edgeLabel;html=1;align=center;verticalAlign=middle;resizable=0;points=[];" connectable="0" vertex="1" parent="RaEK0Ksk2cjIm6eni1Dd-84">
          <mxGeometry x="-0.8247" y="-3" relative="1" as="geometry">
            <mxPoint x="18" as="offset" />
          </mxGeometry>
        </mxCell>
        <mxCell id="RaEK0Ksk2cjIm6eni1Dd-86" style="rounded=0;orthogonalLoop=1;jettySize=auto;html=1;exitX=0.008;exitY=0.92;exitDx=0;exitDy=0;entryX=1;entryY=0;entryDx=0;entryDy=0;exitPerimeter=0;" edge="1" parent="1" source="RaEK0Ksk2cjIm6eni1Dd-81" target="RaEK0Ksk2cjIm6eni1Dd-77">
          <mxGeometry relative="1" as="geometry" />
        </mxCell>
      </root>
    </mxGraphModel>
  </diagram>
</mxfile>
